<svg width="60" height="60" viewBox="0 0 60 60" fill="none" xmlns="http://www.w3.org/2000/svg">
  <mask id="mask0_144_284" style="mask-type:luminance" maskUnits="userSpaceOnUse" x="0" y="0"
    width="60" height="60">
    <path d="M60 0H0V60H60V0Z" fill="white" />
  </mask>
  <g mask="url(#mask0_144_284)">
    <path
      d="M9.07462 17.9188C11.781 13.2312 24.5875 5.8374 30.0001 5.8374C35.4127 5.8374 48.2192 13.2312 50.9256 17.9188C53.6319 22.6064 53.6319 37.3939 50.9256 42.0814C48.2192 46.7689 35.4128 54.1628 30.0001 54.1628C24.5874 54.1628 11.781 46.769 9.07462 42.0814C6.36827 37.3938 6.36827 22.6063 9.07462 17.9188Z"
      fill="#1E293B" stroke="#FF0D58" />
    <path
      d="M37.8677 34.2059C37.5212 34.0944 37.2091 33.8226 37.0113 33.4157C36.9686 33.3233 36.9323 33.2291 36.906 33.139L36.7515 32.6108L38.2817 31.6521L38.2833 31.6512L39.1063 31.1314L39.3481 31.4759C39.4045 31.5563 39.4523 31.6365 39.4896 31.7169L39.4895 31.7169L39.493 31.724C39.6903 32.1321 39.7373 32.606 39.6214 33.0552L39.6214 33.0552L39.6199 33.0612C39.5098 33.5111 39.2537 33.8608 38.9187 34.0721C38.7033 34.2042 38.4748 34.2679 38.2542 34.2679C38.1244 34.2679 37.9978 34.249 37.8716 34.2072L37.8677 34.2059ZM30.2802 36.6654L32.6367 35.189L32.877 35.5315C32.9334 35.6118 32.9812 35.6921 33.0185 35.7724L33.0185 35.7724L33.0219 35.7795C33.2192 36.1876 33.2662 36.6616 33.1504 37.1107L33.1503 37.1107L33.1488 37.1167C33.0387 37.5666 32.7827 37.9163 32.4477 38.1276C32.2322 38.2598 32.0038 38.3234 31.7831 38.3234C31.6533 38.3234 31.5267 38.3045 31.4005 38.2627L31.3966 38.2615C31.0502 38.15 30.7381 37.8781 30.5403 37.4713C30.4975 37.3788 30.4612 37.2846 30.4349 37.1945L30.2802 36.6654ZM38.6023 27.0059L27.5138 33.9548L27.2479 33.6429L21.7742 27.2247L22.0254 27.0675L36.1399 18.2353L36.1415 18.2342C36.3148 18.1249 36.5008 18.1187 36.6792 18.2134C36.8614 18.3101 37.0119 18.5106 37.059 18.7882L37.0589 18.7883L37.0606 18.7968L38.4883 26.3985L38.6023 27.0059ZM37.4691 25.7258L37.4688 25.7241L36.5231 20.7044C36.523 20.7039 36.5229 20.7035 36.5228 20.703C36.4349 20.2305 35.9878 19.8186 35.433 19.9517C34.8998 20.0797 34.6616 20.623 34.7442 21.0822L34.7442 21.0822L34.745 21.0862L35.6907 26.1066C35.6908 26.1067 35.6908 26.1068 35.6908 26.1069C35.7688 26.5251 36.1149 26.879 36.577 26.879C36.6654 26.879 36.7449 26.8603 36.7704 26.8543C36.7723 26.8539 36.7739 26.8535 36.7752 26.8532L36.7752 26.8533L36.7807 26.8519C37.31 26.7249 37.5538 26.1846 37.4691 25.7258Z"
      fill="#1E293B" stroke="#FF0D58" />
    <path
      d="M18.4115 28.926C18.4115 28.668 18.2316 28.4629 18.0053 28.4629H13.7396C13.5132 28.4629 13.3333 28.668 13.3333 28.926C13.3333 29.184 13.5132 29.3891 13.7396 29.3891H18.0053C18.2316 29.3891 18.4115 29.184 18.4115 28.926Z"
      fill="#2B79C2" />
    <path
      d="M17.9587 35.3562C17.9587 35.6142 18.1386 35.8193 18.3649 35.8193H23.6289C23.8552 35.8193 24.0351 35.6142 24.0351 35.3562C24.0351 35.0982 23.8552 34.8931 23.6289 34.8931H18.3649C18.1386 34.8931 17.9587 35.0982 17.9587 35.3562Z"
      fill="#2B79C2" />
    <path
      d="M14.9408 32.6975C14.9408 32.9555 15.1207 33.1606 15.3471 33.1606H22.4681C22.6945 33.1606 22.8744 32.9555 22.8744 32.6975C22.8744 32.4395 22.6945 32.2344 22.4681 32.2344H15.3471C15.1207 32.2344 14.9408 32.4395 14.9408 32.6975Z"
      fill="#2B79C2" />
    <path
      d="M21.685 31.103C21.9114 31.103 22.0913 30.8979 22.0913 30.6399C22.0913 30.3819 21.9114 30.1768 21.685 30.1768H19.7756C19.5493 30.1768 19.3694 30.3819 19.3694 30.6399C19.3694 30.8979 19.5493 31.103 19.7756 31.103H21.685Z"
      fill="#2B79C2" />
    <path
      d="M24.9405 32.9944H24.0525C23.8262 32.9944 23.6462 33.1995 23.6462 33.4575C23.6462 33.7155 23.8262 33.9206 24.0525 33.9206H24.9405C25.1668 33.9206 25.3467 33.7155 25.3467 33.4575C25.3467 33.1995 25.1668 32.9944 24.9405 32.9944Z"
      fill="#2B79C2" />
    <path
      d="M24.9405 36.9648H21.5743C21.348 36.9648 21.1681 37.1699 21.1681 37.428C21.1681 37.686 21.348 37.8911 21.5743 37.8911H24.9405C25.1668 37.8911 25.3467 37.686 25.3467 37.428C25.3467 37.1699 25.1668 36.9648 24.9405 36.9648Z"
      fill="#2B79C2" />
    <path
      d="M19.3926 36.9648H16.8565C16.6301 36.9648 16.4502 37.1699 16.4502 37.428C16.4502 37.686 16.6301 37.8911 16.8565 37.8911H19.3926C19.619 37.8911 19.7989 37.686 19.7989 37.428C19.7989 37.1699 19.6132 36.9648 19.3926 36.9648Z"
      fill="#2B79C2" />
    <path
      d="M15.6143 34.6819H14.2794C14.0531 34.6819 13.8732 34.887 13.8732 35.145C13.8732 35.403 14.0531 35.6081 14.2794 35.6081H15.6143C15.8406 35.6081 16.0205 35.403 16.0205 35.145C16.0205 34.887 15.8406 34.6819 15.6143 34.6819Z"
      fill="#2B79C2" />
    <path
      d="M16.8562 31.103C17.0825 31.103 17.2624 30.8979 17.2624 30.6399C17.2624 30.3819 17.0825 30.1768 16.8562 30.1768H16.1771C15.9508 30.1768 15.7709 30.3819 15.7709 30.6399C15.7709 30.8979 15.9508 31.103 16.1771 31.103H16.8562Z"
      fill="#2B79C2" />
  </g>
</svg>
  
  